# Blender v2.80 (sub 75) OBJ File: ''
# www.blender.org
mtllib modes.mtl
o Cube_Cube.001
v -1.847371 0.308529 1.000000
v -1.847371 0.002290 1.000000
v -1.847371 0.308529 -1.000000
v -1.847371 0.002290 -1.000000
v 1.847371 0.308529 1.000000
v 1.847371 0.002290 1.000000
v 1.847371 0.308529 -1.000000
v 1.847371 0.002290 -1.000000
vt 0.977622 0.991363
vt 0.977622 0.991363
vt 0.977622 0.008636
vt 0.977622 0.008636
vt 0.022378 0.008636
vt 0.022378 0.008636
vt 0.022378 0.991363
vt 0.022378 0.991363
vn -1.0000 0.0000 0.0000
vn 0.0000 0.0000 -1.0000
vn 1.0000 0.0000 0.0000
vn 0.0000 0.0000 1.0000
vn 0.0000 1.0000 0.0000
vn 0.0000 -1.0000 0.0000
usemtl None
s off
f 2/1/1 1/2/1 3/3/1
f 4/4/2 3/3/2 7/5/2
f 8/6/3 7/5/3 5/7/3
f 6/8/4 5/7/4 1/2/4
f 7/5/5 3/3/5 1/2/5
f 4/4/6 8/6/6 6/8/6
f 2/1/1 3/3/1 4/4/1
f 4/4/2 7/5/2 8/6/2
f 8/6/3 5/7/3 6/8/3
f 6/8/4 1/2/4 2/1/4
f 7/5/5 1/2/5 5/7/5
f 4/4/6 6/8/6 2/1/6
